# xmcd
#
# Track frame offsets:
#	150
#	21714
#	44643
#	65891
#	84874
#	108290
#	131045
#	148119
#	193970
#	224725
#
# Disc length: 3269 seconds
#
# Revision: 1
# Processed by: cddbd v1.5.1PL0 Copyright (c) Steve Scherf et al.
# Submitted via: EasyCDDAExtractor 7.0.5.1
#
DISCID=a80cc30a
DTITLE=Honky Tonk Brothers -  - Oczko live part II - mat. rob.
DYEAR=2002
DGENRE=Country
TTITLE0=12. frankie and johnny
TTITLE1=13. tom dooley
TTITLE2=14. down by the riveside
TTITLE3=15. everything I love
TTITLE4=16. she's caught the katy
TTITLE5=17. knock knock knock to heaven door
TTITLE6=18. mercury  blues
TTITLE7=19. world the cirkle be unbroken
TTITLE8=20. jak ja nie lubiê swojej roboty 2
TTITLE9=21. road-life boogie
EXTD=
EXTT0=
EXTT1=
EXTT2=
EXTT3=
EXTT4=
EXTT5=
EXTT6=
EXTT7=
EXTT8=
EXTT9=
PLAYORDER=
